<svg xmlns="http://www.w3.org/2000/svg" width="1856" height="1044" viewBox="0 0 1856 1044">
  <defs>
    <style>
      .cls-1 {
        fill: #e0e4ea;
      }

      .cls-2 {
        fill: #1063ff;
      }

      .cls-3 {
        fill: #c1c7cd;
      }

      .cls-4 {
        fill: #ff7eb6;
      }

      .cls-5 {
        fill: #fff;
      }

      .cls-6 {
        fill: #be95ff;
      }

      .cls-7 {
        fill: #231f20;
      }

      .cls-8 {
        fill: #3ddbd9;
      }
    </style>
  </defs>
  <g id="Layer_1" data-name="Layer 1">
    <rect class="cls-1" width="1856" height="1044"/>
  </g>
  <g id="Layer_2" data-name="Layer 2">
    <rect class="cls-2" x="112" y="112" width="160" height="160"/>
    <rect class="cls-3" x="112" y="772" width="160" height="160"/>
    <rect class="cls-4" x="112" y="552" width="160" height="160"/>
    <rect class="cls-2" x="332" y="112" width="160" height="160"/>
    <rect class="cls-2" x="552" y="112" width="160" height="160"/>
    <rect class="cls-2" x="772" y="112" width="160" height="160"/>
    <path id="IBM_alternating" data-name="IBM alternating" class="cls-5" d="M131.848,168h23.3925v9.7215h-6.6836v28.557h6.6836V216H131.848v-9.7215h6.6836v-28.557H131.848Zm64.1013,35.2139A12.7726,12.7726,0,0,1,183.19,216H158.5822v-9.7215h6.6835v-28.557h-6.6835V168H183.19a12.7724,12.7724,0,0,1,6.0759,24A12.782,12.782,0,0,1,195.9493,203.2139Zm-1.6709,0c0-4.53-2.4727-8.5557-8.314-11.2185,5.018-2.2992,8.314-5.6157,8.314-11.2185a11.1149,11.1149,0,0,0-11.1023-11.1023l-22.923-.0035v6.38h6.6836v31.8988h-6.6836v6.3788l22.9221-.012A11.1151,11.1151,0,0,0,194.2784,203.2139ZM186.38,176.0506v12.76H173.62v-12.76Zm-1.6709,1.6709H175.291v9.4177h9.4178ZM186.38,195.19v12.76H173.62V195.19Zm-1.6709,1.6709H175.291v9.4177h9.4178ZM225.4125,216l1.1668-3.3418h-2.3231Zm-2.2228-6.38h4.4562l1.1732-3.3417h-6.8026Zm-2.24-6.38h8.9356l1.1733-3.3418H219.7768Zm-2.24-6.38h13.415l1.1733-3.3417H217.5371Zm-13.3432-12.7594H223.422L222.26,180.76H205.3671Zm24.265-6.38h22.52V174.38H230.7942ZM233.0127,168l-1.162,3.3418H252.152V168Zm-34.3291,48h16.7089v-3.3418H198.6836Zm0-6.38h16.7089v-3.3417H198.6836Zm6.6835-6.38h10.0254v-3.3418H205.3671Zm0-6.38h10.0254V193.519H205.3671ZM245.4684,180.76H228.5756l-1.1621,3.3418h18.0549Zm-10.0253,9.7215h10.0253v-3.3418H226.3571l-.9393,2.7012-.9393-2.7012H205.3671v3.3418h10.0254V187.41l1.0781,3.071h17.8945l1.078-3.0707Zm10.0253,3.038H235.4431v3.3417h10.0253Zm-10.0253,9.7215h10.0253v-3.3418H235.4431Zm0,6.38H252.152v-3.3417H235.4431Zm0,6.38H252.152v-3.3418H235.4431Zm-14.24-38.2785-1.1621-3.3418H198.6836v3.3418Zm-2.2186-6.38L217.8228,168H198.6836v3.3418Z"/>
    <rect class="cls-3" x="552" y="772" width="160" height="160"/>
    <rect class="cls-6" x="552" y="332" width="160" height="160"/>
    <rect class="cls-4" x="552" y="552" width="160" height="160"/>
    <path id="IBM_Mixed" data-name="IBM Mixed" d="M578.5317,410.481H588.557v-3.3418H578.5317ZM588.557,400.76H578.5317v3.3418H588.557Zm-16.7089-3.038h23.3925V394.38H571.8481Zm0-6.38h23.3925V388H571.8481ZM588.557,413.519v12.76h6.6835V436H571.8481v-9.7215h6.6836v-12.76Zm31.5949-22.1772h11.6457A12.7124,12.7124,0,0,0,623.19,388H598.5824v9.7215h6.6835v12.76h26.181a12.8118,12.8118,0,0,0,2.7877-3.3418H615.2912v-9.4177h20.2915a12.6751,12.6751,0,0,0-1.3444-3.3418H620.1519Zm4.5571,12.76h10.7935a12.7675,12.7675,0,0,0,.447-3.3418h-11.24Zm-19.4431,19.1392h10.0253v-3.3418H605.2659ZM623.19,436a12.7868,12.7868,0,0,0,8.3109-22.481H605.2659v3.3417h19.4429v9.4178H598.5824V429.62h21.5695v3.038H598.5824V436Zm42.2279-26.16L657.8228,388H638.6835v9.7215h6.6836v12.76h10.0253V407.41l1.0768,3.0708h17.8959l1.0781-3.0707v3.0707h10.0253v-3.3418H666.3572Zm10.0253,3.6787V436h16.7089v-9.7215h-6.6836v-12.76ZM638.6835,436h16.7089v-3.3418H638.6835Zm0-6.38h16.7089v-3.3417H638.6835Zm6.6837-6.38h10.0252v-3.3418H645.3672Zm0-6.38h10.0252V413.519H645.3672Zm17.8141,12.76-1.1714-3.3418h3.4078v-3.038H660.945l-1.1714-3.3418h5.6441v-3.0379h-6.7091l-1.1714-3.3418h15.7615L665.4177,436l-1.1714-3.3418h1.1714V429.62Zm6.4509-31.8988h22.52V394.38H670.7943Zm3.38-9.7215-1.1619,3.3418h20.3011V388Zm12.4556,12.76H668.5757l-1.1621,3.3418h18.0547Z"/>
    <path id="IBM_Mixed-2" data-name="IBM Mixed" d="M578.5317,630.481H588.557v-3.3418H578.5317ZM588.557,620.76H578.5317v3.3418H588.557Zm-16.7089-3.038h23.3925V614.38H571.8481Zm0-6.38h23.3925V608H571.8481ZM588.557,633.519v12.76h6.6835V656H571.8481v-9.7215h6.6836v-12.76Zm31.5949-22.1772h11.6457A12.7124,12.7124,0,0,0,623.19,608H598.5824v9.7215h6.6835v12.76h26.181a12.8118,12.8118,0,0,0,2.7877-3.3418H615.2912v-9.4177h20.2915a12.6751,12.6751,0,0,0-1.3444-3.3418H620.1519Zm4.5571,12.76h10.7935a12.7675,12.7675,0,0,0,.447-3.3418h-11.24Zm-19.4431,19.1392h10.0253v-3.3418H605.2659ZM623.19,656a12.7868,12.7868,0,0,0,8.3109-22.481H605.2659v3.3417h19.4429v9.4178H598.5824V649.62h21.5695v3.038H598.5824V656Zm42.2279-26.16L657.8228,608H638.6835v9.7215h6.6836v12.76h10.0253V627.41l1.0768,3.0708h17.8959l1.0781-3.0707v3.0707h10.0253v-3.3418H666.3572Zm10.0253,3.6787V656h16.7089v-9.7215h-6.6836v-12.76ZM638.6835,656h16.7089v-3.3418H638.6835Zm0-6.38h16.7089v-3.3417H638.6835Zm6.6837-6.38h10.0252v-3.3418H645.3672Zm0-6.38h10.0252V633.519H645.3672Zm17.8141,12.76-1.1714-3.3418h3.4078v-3.038H660.945l-1.1714-3.3418h5.6441v-3.0379h-6.7091l-1.1714-3.3418h15.7615L665.4177,656l-1.1714-3.3418h1.1714V649.62Zm6.4509-31.8988h22.52V614.38H670.7943Zm3.38-9.7215-1.1619,3.3418h20.3011V608Zm12.4556,12.76H668.5757l-1.1621,3.3418h18.0547Z"/>
    <path id="IBM_Mixed-3" data-name="IBM Mixed" d="M578.5317,850.481H588.557v-3.3418H578.5317ZM588.557,840.76H578.5317v3.3418H588.557Zm-16.7089-3.038h23.3925V834.38H571.8481Zm0-6.38h23.3925V828H571.8481ZM588.557,853.519v12.76h6.6835V876H571.8481v-9.7215h6.6836v-12.76Zm31.5949-22.1772h11.6457A12.7124,12.7124,0,0,0,623.19,828H598.5824v9.7215h6.6835v12.76h26.181a12.8118,12.8118,0,0,0,2.7877-3.3418H615.2912v-9.4177h20.2915a12.6751,12.6751,0,0,0-1.3444-3.3418H620.1519Zm4.5571,12.76h10.7935a12.7675,12.7675,0,0,0,.447-3.3418h-11.24Zm-19.4431,19.1392h10.0253v-3.3418H605.2659ZM623.19,876a12.7868,12.7868,0,0,0,8.3109-22.481H605.2659v3.3417h19.4429v9.4178H598.5824V869.62h21.5695v3.038H598.5824V876Zm42.2279-26.16L657.8228,828H638.6835v9.7215h6.6836v12.76h10.0253V847.41l1.0768,3.0708h17.8959l1.0781-3.0707v3.0707h10.0253v-3.3418H666.3572Zm10.0253,3.6787V876h16.7089v-9.7215h-6.6836v-12.76ZM638.6835,876h16.7089v-3.3418H638.6835Zm0-6.38h16.7089v-3.3417H638.6835Zm6.6837-6.38h10.0252v-3.3418H645.3672Zm0-6.38h10.0252V853.519H645.3672Zm17.8141,12.76-1.1714-3.3418h3.4078v-3.038H660.945l-1.1714-3.3418h5.6441v-3.0379h-6.7091l-1.1714-3.3418h15.7615L665.4177,876l-1.1714-3.3418h1.1714V869.62Zm6.4509-31.8988h22.52V834.38H670.7943Zm3.38-9.7215-1.1619,3.3418h20.3011V828Zm12.4556,12.76H668.5757l-1.1621,3.3418h18.0547Z"/>
    <rect class="cls-3" x="772" y="772" width="160" height="160"/>
    <rect class="cls-6" x="772" y="332" width="160" height="160"/>
    <rect class="cls-4" x="772" y="552" width="160" height="160"/>
    <g id="IBM_Outlined" data-name="IBM Outlined">
      <path d="M815.2405,397.7215V388H791.8481v9.7215h6.6836v28.557h-6.6836V436h23.3924v-9.7215H808.557v-28.557Zm-3.0379,31.595v3.6455H794.8861v-3.6455H801.57v-34.633h-6.6835V391.038h17.3165v3.6455H805.519v34.633Z"/>
      <path d="M912.1519,397.7215V388H893.0126l-7.5949,20.25L877.8228,388H858.6835v9.7215h6.6836v28.557h-6.6836V436h16.7089V410.0253L885.4177,436l10.0253-25.9747V436h16.7089v-9.7215h-6.6836v-28.557Zm-3.038,31.595v3.6455H898.481V401.519h-2.9733l-10.09,26.0922L875.3465,401.519h-2.9921v31.443H861.7215v-3.6455h6.6835v-34.633h-6.6835V391.038h13.9412l9.755,25.6007,9.755-25.6007h13.9412v3.6455H902.43v34.633Z"/>
      <path d="M849.2969,411.9954A12.78,12.78,0,0,0,843.19,388H818.5823v9.7215h6.6835v28.557h-6.6835V436H843.19a12.7859,12.7859,0,0,0,6.1071-24.0046ZM843.19,432.962H821.62v-3.6455h6.6836v-34.633H821.62V391.038h21.57a9.7421,9.7421,0,0,1,4.6514,18.2909l-.0944.0515V394.6835H832.2531v15.4937h12.4557v3.6456H832.2531v15.4937h15.4937V414.61l.0944.0515a9.7479,9.7479,0,0,1-4.6514,18.3Zm1.519-35.24v9.4177h-9.4177v-9.4177Zm0,19.1393v9.4177h-9.4177v-9.4177Z"/>
    </g>
    <g id="IBM_Outlined-2" data-name="IBM Outlined">
      <path d="M815.2405,617.7215V608H791.8481v9.7215h6.6836v28.557h-6.6836V656h23.3924v-9.7215H808.557v-28.557Zm-3.0379,31.595v3.6455H794.8861v-3.6455H801.57v-34.633h-6.6835V611.038h17.3165v3.6455H805.519v34.633Z"/>
      <path d="M912.1519,617.7215V608H893.0126l-7.5949,20.25L877.8228,608H858.6835v9.7215h6.6836v28.557h-6.6836V656h16.7089V630.0253L885.4177,656l10.0253-25.9747V656h16.7089v-9.7215h-6.6836v-28.557Zm-3.038,31.595v3.6455H898.481V621.519h-2.9733l-10.09,26.0922L875.3465,621.519h-2.9921v31.443H861.7215v-3.6455h6.6835v-34.633h-6.6835V611.038h13.9412l9.755,25.6007,9.755-25.6007h13.9412v3.6455H902.43v34.633Z"/>
      <path d="M849.2969,631.9954A12.78,12.78,0,0,0,843.19,608H818.5823v9.7215h6.6835v28.557h-6.6835V656H843.19a12.7859,12.7859,0,0,0,6.1071-24.0046ZM843.19,652.962H821.62v-3.6455h6.6836v-34.633H821.62V611.038h21.57a9.7421,9.7421,0,0,1,4.6514,18.2909l-.0944.0515V614.6835H832.2531v15.4937h12.4557v3.6456H832.2531v15.4937h15.4937V634.61l.0944.0515a9.7479,9.7479,0,0,1-4.6514,18.3Zm1.519-35.24v9.4177h-9.4177v-9.4177Zm0,19.1393v9.4177h-9.4177v-9.4177Z"/>
    </g>
    <g id="IBM_Outlined-3" data-name="IBM Outlined">
      <path d="M815.2405,837.7215V828H791.8481v9.7215h6.6836v28.557h-6.6836V876h23.3924v-9.7215H808.557v-28.557Zm-3.0379,31.595v3.6455H794.8861v-3.6455H801.57v-34.633h-6.6835V831.038h17.3165v3.6455H805.519v34.633Z"/>
      <path d="M912.1519,837.7215V828H893.0126l-7.5949,20.25L877.8228,828H858.6835v9.7215h6.6836v28.557h-6.6836V876h16.7089V850.0253L885.4177,876l10.0253-25.9747V876h16.7089v-9.7215h-6.6836v-28.557Zm-3.038,31.595v3.6455H898.481V841.519h-2.9733l-10.09,26.0922L875.3465,841.519h-2.9921v31.443H861.7215v-3.6455h6.6835v-34.633h-6.6835V831.038h13.9412l9.755,25.6007,9.755-25.6007h13.9412v3.6455H902.43v34.633Z"/>
      <path d="M849.2969,851.9954A12.78,12.78,0,0,0,843.19,828H818.5823v9.7215h6.6835v28.557h-6.6835V876H843.19a12.7859,12.7859,0,0,0,6.1071-24.0046ZM843.19,872.962H821.62v-3.6455h6.6836v-34.633H821.62V831.038h21.57a9.7421,9.7421,0,0,1,4.6514,18.2909l-.0944.0515V834.6835H832.2531v15.4937h12.4557v3.6456H832.2531v15.4937h15.4937V854.61l.0944.0515a9.7479,9.7479,0,0,1-4.6514,18.3Zm1.519-35.24v9.4177h-9.4177v-9.4177Zm0,19.1393v9.4177h-9.4177v-9.4177Z"/>
    </g>
    <rect class="cls-3" x="332" y="772" width="160" height="160"/>
    <rect class="cls-6" x="332" y="332" width="160" height="160"/>
    <rect class="cls-4" x="332" y="552" width="160" height="160"/>
    <path id="IBM_blend" data-name="IBM blend" d="M465.4683,397.7215v28.557h6.6836V436H455.443V407.41L445.4177,436l-10.0253-28.59V436H418.6835v-9.7215h6.6836v-28.557h-6.6836V388h19.1393l7.5949,21.84L453.0126,388h19.1393v9.7215Zm-49.8858,0A12.7633,12.7633,0,0,0,403.19,388H378.5822v9.7215Zm-37,28.557V436H403.19a12.7688,12.7688,0,0,0,12.3906-9.7216Zm37.3671-3.038v-.0266a12.7314,12.7314,0,0,0-4.4814-9.6949H385.2658v9.7215h10.0253v-6.38h9.4177v6.38Zm-4.4824-12.76a12.7526,12.7526,0,0,0,4.4824-9.7041V400.76h-11.24v6.38h-9.4177v-6.38H385.2658v9.7215ZM351.8481,436h23.3925v-3.3418H351.8481Zm0-6.38h23.3925v-3.3417H351.8481Zm6.6836-6.38H368.557v-3.3418H358.5317Zm0-6.38H368.557V413.519H358.5317Zm0-6.38H368.557v-3.3418H358.5317ZM368.557,400.76H358.5317v3.3418H368.557Zm-16.7089-3.038h23.3925V394.38H351.8481Zm0-6.38h23.3925V388H351.8481Z"/>
    <path id="IBM_blend-2" data-name="IBM blend" d="M465.4683,617.7215v28.557h6.6836V656H455.443V627.41L445.4177,656l-10.0253-28.59V656H418.6835v-9.7215h6.6836v-28.557h-6.6836V608h19.1393l7.5949,21.84L453.0126,608h19.1393v9.7215Zm-49.8858,0A12.7633,12.7633,0,0,0,403.19,608H378.5822v9.7215Zm-37,28.557V656H403.19a12.7688,12.7688,0,0,0,12.3906-9.7216Zm37.3671-3.038v-.0266a12.7314,12.7314,0,0,0-4.4814-9.6949H385.2658v9.7215h10.0253v-6.38h9.4177v6.38Zm-4.4824-12.76a12.7526,12.7526,0,0,0,4.4824-9.7041V620.76h-11.24v6.38h-9.4177v-6.38H385.2658v9.7215ZM351.8481,656h23.3925v-3.3418H351.8481Zm0-6.38h23.3925v-3.3417H351.8481Zm6.6836-6.38H368.557v-3.3418H358.5317Zm0-6.38H368.557V633.519H358.5317Zm0-6.38H368.557v-3.3418H358.5317ZM368.557,620.76H358.5317v3.3418H368.557Zm-16.7089-3.038h23.3925V614.38H351.8481Zm0-6.38h23.3925V608H351.8481Z"/>
    <path id="IBM_blend-3" data-name="IBM blend" d="M465.4683,837.7215v28.557h6.6836V876H455.443V847.41L445.4177,876l-10.0253-28.59V876H418.6835v-9.7215h6.6836v-28.557h-6.6836V828h19.1393l7.5949,21.84L453.0126,828h19.1393v9.7215Zm-49.8858,0A12.7633,12.7633,0,0,0,403.19,828H378.5822v9.7215Zm-37,28.557V876H403.19a12.7688,12.7688,0,0,0,12.3906-9.7216Zm37.3671-3.038v-.0266a12.7314,12.7314,0,0,0-4.4814-9.6949H385.2658v9.7215h10.0253v-6.38h9.4177v6.38Zm-4.4824-12.76a12.7526,12.7526,0,0,0,4.4824-9.7041V840.76h-11.24v6.38h-9.4177v-6.38H385.2658v9.7215ZM351.8481,876h23.3925v-3.3418H351.8481Zm0-6.38h23.3925v-3.3417H351.8481Zm6.6836-6.38H368.557v-3.3418H358.5317Zm0-6.38H368.557V853.519H358.5317Zm0-6.38H368.557v-3.3418H358.5317ZM368.557,840.76H358.5317v3.3418H368.557Zm-16.7089-3.038h23.3925V834.38H351.8481Zm0-6.38h23.3925V828H351.8481Z"/>
    <rect class="cls-6" x="112" y="332" width="160" height="160"/>
    <path id="IBM_alternating-2" data-name="IBM alternating" d="M131.848,388h23.3925v9.7215h-6.6836v28.557h6.6836V436H131.848v-9.7215h6.6836v-28.557H131.848Zm64.1013,35.2139A12.7726,12.7726,0,0,1,183.19,436H158.5822v-9.7215h6.6835v-28.557h-6.6835V388H183.19a12.7724,12.7724,0,0,1,6.0759,24A12.782,12.782,0,0,1,195.9493,423.2139Zm-1.6709,0c0-4.53-2.4727-8.5557-8.314-11.2185,5.018-2.2992,8.314-5.6157,8.314-11.2185a11.1149,11.1149,0,0,0-11.1023-11.1023l-22.923-.0035v6.3795h6.6836v31.8988h-6.6836v6.3788l22.9221-.012A11.1151,11.1151,0,0,0,194.2784,423.2139ZM186.38,396.0506v12.76H173.62v-12.76Zm-1.6709,1.6709H175.291v9.4177h9.4178ZM186.38,415.19v12.76H173.62V415.19Zm-1.6709,1.6709H175.291v9.4177h9.4178ZM225.4125,436l1.1668-3.3418h-2.3231Zm-2.2228-6.38h4.4562l1.1732-3.3417h-6.8026Zm-2.24-6.38h8.9356l1.1733-3.3418H219.7768Zm-2.24-6.38h13.415l1.1733-3.3417H217.5371Zm-13.3432-12.7594H223.422L222.26,400.76H205.3671Zm24.265-6.38h22.52V394.38H230.7942ZM233.0127,388l-1.162,3.3418H252.152V388Zm-34.3291,48h16.7089v-3.3418H198.6836Zm0-6.38h16.7089v-3.3417H198.6836Zm6.6835-6.38h10.0254v-3.3418H205.3671Zm0-6.38h10.0254V413.519H205.3671ZM245.4684,400.76H228.5756l-1.1621,3.3418h18.0549Zm-10.0253,9.7215h10.0253v-3.3418H226.3571l-.9393,2.7012-.9393-2.7012H205.3671v3.3418h10.0254V407.41l1.0781,3.071h17.8945l1.078-3.0707Zm10.0253,3.038H235.4431v3.3417h10.0253Zm-10.0253,9.7215h10.0253v-3.3418H235.4431Zm0,6.38H252.152v-3.3417H235.4431Zm0,6.38H252.152v-3.3418H235.4431Zm-14.24-38.2785-1.1621-3.3418H198.6836v3.3418Zm-2.2186-6.38L217.8228,388H198.6836v3.3418Z"/>
    <path id="IBM_alternating-3" data-name="IBM alternating" d="M131.848,608h23.3925v9.7215h-6.6836v28.557h6.6836V656H131.848v-9.7215h6.6836v-28.557H131.848Zm64.1013,35.2139A12.7726,12.7726,0,0,1,183.19,656H158.5822v-9.7215h6.6835v-28.557h-6.6835V608H183.19a12.7724,12.7724,0,0,1,6.0759,24A12.782,12.782,0,0,1,195.9493,643.2139Zm-1.6709,0c0-4.53-2.4727-8.5557-8.314-11.2185,5.018-2.2992,8.314-5.6157,8.314-11.2185a11.1149,11.1149,0,0,0-11.1023-11.1023l-22.923-.0035v6.38h6.6836v31.8988h-6.6836v6.3788l22.9221-.012A11.1151,11.1151,0,0,0,194.2784,643.2139ZM186.38,616.0506v12.76H173.62v-12.76Zm-1.6709,1.6709H175.291v9.4177h9.4178ZM186.38,635.19v12.76H173.62V635.19Zm-1.6709,1.6709H175.291v9.4177h9.4178ZM225.4125,656l1.1668-3.3418h-2.3231Zm-2.2228-6.38h4.4562l1.1732-3.3417h-6.8026Zm-2.24-6.38h8.9356l1.1733-3.3418H219.7768Zm-2.24-6.38h13.415l1.1733-3.3417H217.5371Zm-13.3432-12.7594H223.422L222.26,620.76H205.3671Zm24.265-6.38h22.52V614.38H230.7942ZM233.0127,608l-1.162,3.3418H252.152V608Zm-34.3291,48h16.7089v-3.3418H198.6836Zm0-6.38h16.7089v-3.3417H198.6836Zm6.6835-6.38h10.0254v-3.3418H205.3671Zm0-6.38h10.0254V633.519H205.3671ZM245.4684,620.76H228.5756l-1.1621,3.3418h18.0549Zm-10.0253,9.7215h10.0253v-3.3418H226.3571l-.9393,2.7012-.9393-2.7012H205.3671v3.3418h10.0254V627.41l1.0781,3.071h17.8945l1.078-3.0707Zm10.0253,3.038H235.4431v3.3417h10.0253Zm-10.0253,9.7215h10.0253v-3.3418H235.4431Zm0,6.38H252.152v-3.3417H235.4431Zm0,6.38H252.152v-3.3418H235.4431Zm-14.24-38.2785-1.1621-3.3418H198.6836v3.3418Zm-2.2186-6.38L217.8228,608H198.6836v3.3418Z"/>
    <path id="IBM_alternating-4" data-name="IBM alternating" d="M131.848,828h23.3925v9.7215h-6.6836v28.557h6.6836V876H131.848v-9.7215h6.6836v-28.557H131.848Zm64.1013,35.2139A12.7726,12.7726,0,0,1,183.19,876H158.5822v-9.7215h6.6835v-28.557h-6.6835V828H183.19a12.7724,12.7724,0,0,1,6.0759,24A12.782,12.782,0,0,1,195.9493,863.2139Zm-1.6709,0c0-4.53-2.4727-8.5557-8.314-11.2185,5.018-2.2992,8.314-5.6157,8.314-11.2185a11.1149,11.1149,0,0,0-11.1023-11.1023l-22.923-.0035v6.38h6.6836v31.8988h-6.6836v6.3788l22.9221-.012A11.1151,11.1151,0,0,0,194.2784,863.2139ZM186.38,836.0506v12.76H173.62v-12.76Zm-1.6709,1.6709H175.291v9.4177h9.4178ZM186.38,855.19v12.76H173.62V855.19Zm-1.6709,1.6709H175.291v9.4177h9.4178ZM225.4125,876l1.1668-3.3418h-2.3231Zm-2.2228-6.38h4.4562l1.1732-3.3417h-6.8026Zm-2.24-6.38h8.9356l1.1733-3.3418H219.7768Zm-2.24-6.38h13.415l1.1733-3.3417H217.5371Zm-13.3432-12.7594H223.422L222.26,840.76H205.3671Zm24.265-6.38h22.52V834.38H230.7942ZM233.0127,828l-1.162,3.3418H252.152V828Zm-34.3291,48h16.7089v-3.3418H198.6836Zm0-6.38h16.7089v-3.3417H198.6836Zm6.6835-6.38h10.0254v-3.3418H205.3671Zm0-6.38h10.0254V853.519H205.3671ZM245.4684,840.76H228.5756l-1.1621,3.3418h18.0549Zm-10.0253,9.7215h10.0253v-3.3418H226.3571l-.9393,2.7012-.9393-2.7012H205.3671v3.3418h10.0254V847.41l1.0781,3.071h17.8945l1.078-3.0707Zm10.0253,3.038H235.4431v3.3417h10.0253Zm-10.0253,9.7215h10.0253v-3.3418H235.4431Zm0,6.38H252.152v-3.3417H235.4431Zm0,6.38H252.152v-3.3418H235.4431Zm-14.24-38.2785-1.1621-3.3418H198.6836v3.3418Zm-2.2186-6.38L217.8228,828H198.6836v3.3418Z"/>
    <path id="IBM_blend-4" data-name="IBM blend" class="cls-5" d="M465.4683,177.7215v28.557h6.6836V216H455.443V187.41L445.4177,216l-10.0253-28.59V216H418.6835v-9.7215h6.6836v-28.557h-6.6836V168h19.1393l7.5949,21.84L453.0126,168h19.1393v9.7215Zm-49.8858,0A12.7633,12.7633,0,0,0,403.19,168H378.5822v9.7215Zm-37,28.557V216H403.19a12.7688,12.7688,0,0,0,12.3906-9.7216Zm37.3671-3.038v-.0266a12.7314,12.7314,0,0,0-4.4814-9.6949H385.2658v9.7215h10.0253v-6.38h9.4177v6.38Zm-4.4824-12.76a12.7526,12.7526,0,0,0,4.4824-9.7041V180.76h-11.24v6.38h-9.4177v-6.38H385.2658v9.7215ZM351.8481,216h23.3925v-3.3418H351.8481Zm0-6.38h23.3925v-3.3417H351.8481Zm6.6836-6.38H368.557v-3.3418H358.5317Zm0-6.38H368.557V193.519H358.5317Zm0-6.38H368.557v-3.3418H358.5317ZM368.557,180.76H358.5317v3.3418H368.557Zm-16.7089-3.038h23.3925V174.38H351.8481Zm0-6.38h23.3925V168H351.8481Z"/>
    <path id="IBM_Mixed-4" data-name="IBM Mixed" class="cls-5" d="M578.5317,190.481H588.557v-3.3418H578.5317ZM588.557,180.76H578.5317v3.3418H588.557Zm-16.7089-3.038h23.3925V174.38H571.8481Zm0-6.38h23.3925V168H571.8481ZM588.557,193.519v12.76h6.6835V216H571.8481v-9.7215h6.6836v-12.76Zm31.5949-22.1772h11.6457A12.7124,12.7124,0,0,0,623.19,168H598.5824v9.7215h6.6835v12.76h26.181a12.8118,12.8118,0,0,0,2.7877-3.3418H615.2912v-9.4177h20.2915a12.6751,12.6751,0,0,0-1.3444-3.3418H620.1519Zm4.5571,12.76h10.7935a12.7675,12.7675,0,0,0,.447-3.3418h-11.24Zm-19.4431,19.1392h10.0253v-3.3418H605.2659ZM623.19,216a12.7868,12.7868,0,0,0,8.3109-22.481H605.2659v3.3417h19.4429v9.4178H598.5824V209.62h21.5695v3.038H598.5824V216Zm42.2279-26.16L657.8228,168H638.6835v9.7215h6.6836v12.76h10.0253V187.41l1.0768,3.0708h17.8959l1.0781-3.0707v3.0707h10.0253v-3.3418H666.3572Zm10.0253,3.6787V216h16.7089v-9.7215h-6.6836v-12.76ZM638.6835,216h16.7089v-3.3418H638.6835Zm0-6.38h16.7089v-3.3417H638.6835Zm6.6837-6.38h10.0252v-3.3418H645.3672Zm0-6.38h10.0252V193.519H645.3672Zm17.8141,12.76-1.1714-3.3418h3.4078v-3.038H660.945l-1.1714-3.3418h5.6441v-3.0379h-6.7091l-1.1714-3.3418h15.7615L665.4177,216l-1.1714-3.3418h1.1714V209.62Zm6.4509-31.8988h22.52V174.38H670.7943Zm3.38-9.7215-1.1619,3.3418h20.3011V168Zm12.4556,12.76H668.5757l-1.1621,3.3418h18.0547Z"/>
    <g id="IBM_Outlined-4" data-name="IBM Outlined">
      <path class="cls-5" d="M815.2405,177.7215V168H791.8481v9.7215h6.6836v28.557h-6.6836V216h23.3924v-9.7215H808.557v-28.557Zm-3.0379,31.595v3.6455H794.8861v-3.6455H801.57v-34.633h-6.6835V171.038h17.3165v3.6455H805.519v34.633Z"/>
      <path class="cls-5" d="M912.1519,177.7215V168H893.0126l-7.5949,20.25L877.8228,168H858.6835v9.7215h6.6836v28.557h-6.6836V216h16.7089V190.0253L885.4177,216l10.0253-25.9747V216h16.7089v-9.7215h-6.6836v-28.557Zm-3.038,31.595v3.6455H898.481V181.519h-2.9733l-10.09,26.0922L875.3465,181.519h-2.9921v31.443H861.7215v-3.6455h6.6835v-34.633h-6.6835V171.038h13.9412l9.755,25.6007,9.755-25.6007h13.9412v3.6455H902.43v34.633Z"/>
      <path class="cls-5" d="M849.2969,191.9954A12.78,12.78,0,0,0,843.19,168H818.5823v9.7215h6.6835v28.557h-6.6835V216H843.19a12.7859,12.7859,0,0,0,6.1071-24.0046ZM843.19,212.962H821.62v-3.6455h6.6836v-34.633H821.62V171.038h21.57a9.7421,9.7421,0,0,1,4.6514,18.2909l-.0944.0515V174.6835H832.2531v15.4937h12.4557v3.6456H832.2531v15.4937h15.4937V194.61l.0944.0515a9.7479,9.7479,0,0,1-4.6514,18.3Zm1.519-35.24v9.4177h-9.4177v-9.4177Zm0,19.1393v9.4177h-9.4177v-9.4177Z"/>
    </g>
    <rect class="cls-6" x="1584" y="112" width="160" height="160" transform="translate(3328 384) rotate(-180)"/>
    <g>
      <g>
        <g>
          <g>
            <circle class="cls-7" cx="1664.0216" cy="157.1372" r="4.788"/>
            <path class="cls-7" d="M1664,143.97a20.7927,20.7927,0,0,0-19.1521,13.1671,20.5124,20.5124,0,0,0,38.3042,0A20.7927,20.7927,0,0,0,1664,143.97Zm0,23.94a10.7731,10.7731,0,1,1,10.7731-10.773A10.7731,10.7731,0,0,1,1664,167.91Z"/>
          </g>
          <path class="cls-7" d="M1664,132a20.6265,20.6265,0,0,0-17.9551,10.7731v3.591a23.427,23.427,0,0,1,35.91,0v-3.591A20.6265,20.6265,0,0,0,1664,132Z"/>
        </g>
        <g>
          <polygon points="1664 252 1664.862 249.532 1663.146 249.532 1664 252"/>
          <polygon points="1662.358 247.288 1665.65 247.288 1666.516 244.819 1661.492 244.819 1662.358 247.288"/>
          <polygon points="1660.704 242.575 1667.304 242.575 1668.171 240.107 1659.837 240.107 1660.704 242.575"/>
          <polygon points="1659.049 237.863 1668.958 237.863 1669.825 235.395 1658.183 235.395 1659.049 237.863"/>
          <polygon points="1649.194 228.439 1662.53 228.439 1661.671 225.97 1649.194 225.97 1649.194 228.439"/>
          <polygon points="1667.117 223.726 1683.751 223.726 1683.751 221.258 1667.975 221.258 1667.117 223.726"/>
          <polygon points="1669.614 216.546 1668.755 219.014 1683.751 219.014 1683.751 216.546 1669.614 216.546"/>
          <rect x="1644.2571" y="249.5317" width="12.3417" height="2.4683"/>
          <rect x="1644.2571" y="244.8194" width="12.3417" height="2.4683"/>
          <rect x="1649.1938" y="240.107" width="7.4051" height="2.4684"/>
          <rect x="1649.1938" y="235.3948" width="7.4051" height="2.4683"/>
          <polygon points="1678.814 225.97 1666.336 225.97 1665.478 228.439 1678.814 228.439 1678.814 225.97"/>
          <polygon points="1671.409 233.151 1678.814 233.151 1678.814 230.682 1671.409 230.682 1671.409 230.682 1664.698 230.682 1664.004 232.678 1663.31 230.682 1656.599 230.682 1649.194 230.682 1649.194 233.151 1656.599 233.151 1656.599 230.882 1657.395 233.151 1670.613 233.151 1671.409 230.883 1671.409 233.151"/>
          <rect x="1671.4089" y="235.3948" width="7.4051" height="2.4683"/>
          <rect x="1671.4089" y="240.107" width="7.4051" height="2.4684"/>
          <rect x="1671.4089" y="244.8194" width="12.3417" height="2.4683"/>
          <rect x="1671.4089" y="249.5317" width="12.3417" height="2.4683"/>
          <polygon points="1660.891 223.726 1660.033 221.258 1644.257 221.258 1644.257 223.726 1660.891 223.726"/>
          <polygon points="1659.252 219.014 1658.394 216.546 1644.257 216.546 1644.257 219.014 1659.252 219.014"/>
        </g>
      </g>
      <g>
        <g>
          <g>
            <circle class="cls-7" cx="1659.5046" cy="178.9758" r="3.5844"/>
            <circle class="cls-7" cx="1668.4954" cy="178.9758" r="3.5844"/>
          </g>
          <g>
            <path class="cls-7" d="M1644.03,192.75l12.1892-5.3881-4.11,13.05a6.2892,6.2892,0,0,1-12.3489-1.67C1639.7606,195.8145,1641.56,193.8577,1644.03,192.75Z"/>
            <path class="cls-7" d="M1683.97,192.7364l-12.1892-5.3882,4.11,13.05a6.3408,6.3408,0,0,0,6.0855,4.6051l.0066,0a6.2731,6.2731,0,0,0,6.2568-6.2758C1688.2394,195.8011,1686.44,193.8443,1683.97,192.7364Z"/>
          </g>
        </g>
        <g>
          <path class="cls-7" d="M1671.0489,188.5585a7.7661,7.7661,0,0,0-14.0814,0Z"/>
          <rect class="cls-7" x="1656.2195" y="192.1495" width="15.5607" height="4.1895"/>
          <rect class="cls-7" x="1656.2195" y="199.9301" width="15.5607" height="4.1895"/>
          <path class="cls-7" d="M1656.9675,207.7107a7.766,7.766,0,0,0,14.0814,0Z"/>
        </g>
      </g>
    </g>
    <circle class="cls-6" cx="1664" cy="412" r="80"/>
    <g>
      <g>
        <g>
          <g>
            <circle class="cls-7" cx="1664.0216" cy="377.1372" r="4.788"/>
            <path class="cls-7" d="M1664,363.97a20.7927,20.7927,0,0,0-19.1521,13.1671,20.5124,20.5124,0,0,0,38.3042,0A20.7927,20.7927,0,0,0,1664,363.97Zm0,23.94a10.7731,10.7731,0,1,1,10.7731-10.773A10.7731,10.7731,0,0,1,1664,387.91Z"/>
          </g>
          <path class="cls-7" d="M1664,352a20.6265,20.6265,0,0,0-17.9551,10.7731v3.591a23.427,23.427,0,0,1,35.91,0v-3.591A20.6265,20.6265,0,0,0,1664,352Z"/>
        </g>
        <g>
          <polygon points="1664 472 1664.862 469.532 1663.146 469.532 1664 472"/>
          <polygon points="1662.358 467.288 1665.65 467.288 1666.516 464.819 1661.492 464.819 1662.358 467.288"/>
          <polygon points="1660.704 462.575 1667.304 462.575 1668.171 460.107 1659.837 460.107 1660.704 462.575"/>
          <polygon points="1659.049 457.863 1668.958 457.863 1669.825 455.395 1658.183 455.395 1659.049 457.863"/>
          <polygon points="1649.194 448.439 1662.53 448.439 1661.671 445.97 1649.194 445.97 1649.194 448.439"/>
          <polygon points="1667.117 443.726 1683.751 443.726 1683.751 441.258 1667.975 441.258 1667.117 443.726"/>
          <polygon points="1669.614 436.546 1668.755 439.014 1683.751 439.014 1683.751 436.546 1669.614 436.546"/>
          <rect x="1644.2571" y="469.5317" width="12.3417" height="2.4683"/>
          <rect x="1644.2571" y="464.8194" width="12.3417" height="2.4683"/>
          <rect x="1649.1938" y="460.107" width="7.4051" height="2.4684"/>
          <rect x="1649.1938" y="455.3948" width="7.4051" height="2.4683"/>
          <polygon points="1678.814 445.97 1666.336 445.97 1665.478 448.439 1678.814 448.439 1678.814 445.97"/>
          <polygon points="1671.409 453.151 1678.814 453.151 1678.814 450.682 1671.409 450.682 1671.409 450.682 1664.698 450.682 1664.004 452.678 1663.31 450.682 1656.599 450.682 1649.194 450.682 1649.194 453.151 1656.599 453.151 1656.599 450.882 1657.395 453.151 1670.613 453.151 1671.409 450.883 1671.409 453.151"/>
          <rect x="1671.4089" y="455.3948" width="7.4051" height="2.4683"/>
          <rect x="1671.4089" y="460.107" width="7.4051" height="2.4684"/>
          <rect x="1671.4089" y="464.8194" width="12.3417" height="2.4683"/>
          <rect x="1671.4089" y="469.5317" width="12.3417" height="2.4683"/>
          <polygon points="1660.891 443.726 1660.033 441.258 1644.257 441.258 1644.257 443.726 1660.891 443.726"/>
          <polygon points="1659.252 439.014 1658.394 436.546 1644.257 436.546 1644.257 439.014 1659.252 439.014"/>
        </g>
      </g>
      <g>
        <g>
          <g>
            <circle class="cls-7" cx="1659.5046" cy="398.9758" r="3.5844"/>
            <circle class="cls-7" cx="1668.4954" cy="398.9758" r="3.5844"/>
          </g>
          <g>
            <path class="cls-7" d="M1644.03,412.75l12.1892-5.3881-4.11,13.05a6.2892,6.2892,0,0,1-12.3489-1.67C1639.7606,415.8145,1641.56,413.8577,1644.03,412.75Z"/>
            <path class="cls-7" d="M1683.97,412.7364l-12.1892-5.3882,4.11,13.05a6.3408,6.3408,0,0,0,6.0855,4.6051l.0066,0a6.2731,6.2731,0,0,0,6.2568-6.2758C1688.2394,415.8011,1686.44,413.8443,1683.97,412.7364Z"/>
          </g>
        </g>
        <g>
          <path class="cls-7" d="M1671.0489,408.5585a7.7661,7.7661,0,0,0-14.0814,0Z"/>
          <rect class="cls-7" x="1656.2195" y="412.1495" width="15.5607" height="4.1895"/>
          <rect class="cls-7" x="1656.2195" y="419.9301" width="15.5607" height="4.1895"/>
          <path class="cls-7" d="M1656.9675,427.7107a7.766,7.766,0,0,0,14.0814,0Z"/>
        </g>
      </g>
    </g>
    <rect class="cls-5" x="1364" y="112" width="160" height="160" transform="translate(2888 384) rotate(-180)"/>
    <g>
      <g>
        <g>
          <g>
            <circle class="cls-2" cx="1444.0216" cy="157.1372" r="4.788"/>
            <path class="cls-2" d="M1444,143.97a20.7927,20.7927,0,0,0-19.1521,13.1671,20.5124,20.5124,0,0,0,38.3042,0A20.7927,20.7927,0,0,0,1444,143.97Zm0,23.94a10.7731,10.7731,0,1,1,10.7731-10.773A10.7731,10.7731,0,0,1,1444,167.91Z"/>
          </g>
          <path class="cls-2" d="M1444,132a20.6265,20.6265,0,0,0-17.9551,10.7731v3.591a23.427,23.427,0,0,1,35.91,0v-3.591A20.6265,20.6265,0,0,0,1444,132Z"/>
        </g>
        <g>
          <polygon class="cls-2" points="1444 252 1444.862 249.532 1443.146 249.532 1444 252"/>
          <polygon class="cls-2" points="1442.358 247.288 1445.65 247.288 1446.516 244.819 1441.492 244.819 1442.358 247.288"/>
          <polygon class="cls-2" points="1440.704 242.575 1447.304 242.575 1448.171 240.107 1439.837 240.107 1440.704 242.575"/>
          <polygon class="cls-2" points="1439.049 237.863 1448.958 237.863 1449.825 235.395 1438.183 235.395 1439.049 237.863"/>
          <polygon class="cls-2" points="1429.194 228.439 1442.53 228.439 1441.671 225.97 1429.194 225.97 1429.194 228.439"/>
          <polygon class="cls-2" points="1447.117 223.726 1463.751 223.726 1463.751 221.258 1447.975 221.258 1447.117 223.726"/>
          <polygon class="cls-2" points="1449.614 216.546 1448.755 219.014 1463.751 219.014 1463.751 216.546 1449.614 216.546"/>
          <rect class="cls-2" x="1424.2571" y="249.5317" width="12.3417" height="2.4683"/>
          <rect class="cls-2" x="1424.2571" y="244.8194" width="12.3417" height="2.4683"/>
          <rect class="cls-2" x="1429.1938" y="240.107" width="7.4051" height="2.4684"/>
          <rect class="cls-2" x="1429.1938" y="235.3948" width="7.4051" height="2.4683"/>
          <polygon class="cls-2" points="1458.814 225.97 1446.336 225.97 1445.478 228.439 1458.814 228.439 1458.814 225.97"/>
          <polygon class="cls-2" points="1451.409 233.151 1458.814 233.151 1458.814 230.682 1451.409 230.682 1451.409 230.682 1444.698 230.682 1444.004 232.678 1443.31 230.682 1436.599 230.682 1429.194 230.682 1429.194 233.151 1436.599 233.151 1436.599 230.882 1437.395 233.151 1450.613 233.151 1451.409 230.883 1451.409 233.151"/>
          <rect class="cls-2" x="1451.4089" y="235.3948" width="7.4051" height="2.4683"/>
          <rect class="cls-2" x="1451.4089" y="240.107" width="7.4051" height="2.4684"/>
          <rect class="cls-2" x="1451.4089" y="244.8194" width="12.3417" height="2.4683"/>
          <rect class="cls-2" x="1451.4089" y="249.5317" width="12.3417" height="2.4683"/>
          <polygon class="cls-2" points="1440.891 223.726 1440.033 221.258 1424.257 221.258 1424.257 223.726 1440.891 223.726"/>
          <polygon class="cls-2" points="1439.252 219.014 1438.394 216.546 1424.257 216.546 1424.257 219.014 1439.252 219.014"/>
        </g>
      </g>
      <g>
        <g>
          <g>
            <circle class="cls-2" cx="1439.5046" cy="178.9758" r="3.5844"/>
            <circle class="cls-2" cx="1448.4954" cy="178.9758" r="3.5844"/>
          </g>
          <g>
            <path class="cls-2" d="M1424.03,192.75l12.1892-5.3881-4.11,13.05a6.2892,6.2892,0,0,1-12.3489-1.67C1419.7606,195.8145,1421.56,193.8577,1424.03,192.75Z"/>
            <path class="cls-2" d="M1463.97,192.7364l-12.1892-5.3882,4.11,13.05a6.3408,6.3408,0,0,0,6.0855,4.6051l.0066,0a6.2731,6.2731,0,0,0,6.2568-6.2758C1468.2394,195.8011,1466.44,193.8443,1463.97,192.7364Z"/>
          </g>
        </g>
        <g>
          <path class="cls-2" d="M1451.0489,188.5585a7.7661,7.7661,0,0,0-14.0814,0Z"/>
          <rect class="cls-2" x="1436.2195" y="192.1495" width="15.5607" height="4.1895"/>
          <rect class="cls-2" x="1436.2195" y="199.9301" width="15.5607" height="4.1895"/>
          <path class="cls-2" d="M1436.9675,207.7107a7.766,7.766,0,0,0,14.0814,0Z"/>
        </g>
      </g>
    </g>
    <circle class="cls-5" cx="1444" cy="412" r="80"/>
    <g>
      <g>
        <g>
          <g>
            <circle class="cls-2" cx="1444.0216" cy="377.1372" r="4.788"/>
            <path class="cls-2" d="M1444,363.97a20.7927,20.7927,0,0,0-19.1521,13.1671,20.5124,20.5124,0,0,0,38.3042,0A20.7927,20.7927,0,0,0,1444,363.97Zm0,23.94a10.7731,10.7731,0,1,1,10.7731-10.773A10.7731,10.7731,0,0,1,1444,387.91Z"/>
          </g>
          <path class="cls-2" d="M1444,352a20.6265,20.6265,0,0,0-17.9551,10.7731v3.591a23.427,23.427,0,0,1,35.91,0v-3.591A20.6265,20.6265,0,0,0,1444,352Z"/>
        </g>
        <g>
          <polygon class="cls-2" points="1444 472 1444.862 469.532 1443.146 469.532 1444 472"/>
          <polygon class="cls-2" points="1442.358 467.288 1445.65 467.288 1446.516 464.819 1441.492 464.819 1442.358 467.288"/>
          <polygon class="cls-2" points="1440.704 462.575 1447.304 462.575 1448.171 460.107 1439.837 460.107 1440.704 462.575"/>
          <polygon class="cls-2" points="1439.049 457.863 1448.958 457.863 1449.825 455.395 1438.183 455.395 1439.049 457.863"/>
          <polygon class="cls-2" points="1429.194 448.439 1442.53 448.439 1441.671 445.97 1429.194 445.97 1429.194 448.439"/>
          <polygon class="cls-2" points="1447.117 443.726 1463.751 443.726 1463.751 441.258 1447.975 441.258 1447.117 443.726"/>
          <polygon class="cls-2" points="1449.614 436.546 1448.755 439.014 1463.751 439.014 1463.751 436.546 1449.614 436.546"/>
          <rect class="cls-2" x="1424.2571" y="469.5317" width="12.3417" height="2.4683"/>
          <rect class="cls-2" x="1424.2571" y="464.8194" width="12.3417" height="2.4683"/>
          <rect class="cls-2" x="1429.1938" y="460.107" width="7.4051" height="2.4684"/>
          <rect class="cls-2" x="1429.1938" y="455.3948" width="7.4051" height="2.4683"/>
          <polygon class="cls-2" points="1458.814 445.97 1446.336 445.97 1445.478 448.439 1458.814 448.439 1458.814 445.97"/>
          <polygon class="cls-2" points="1451.409 453.151 1458.814 453.151 1458.814 450.682 1451.409 450.682 1451.409 450.682 1444.698 450.682 1444.004 452.678 1443.31 450.682 1436.599 450.682 1429.194 450.682 1429.194 453.151 1436.599 453.151 1436.599 450.882 1437.395 453.151 1450.613 453.151 1451.409 450.883 1451.409 453.151"/>
          <rect class="cls-2" x="1451.4089" y="455.3948" width="7.4051" height="2.4683"/>
          <rect class="cls-2" x="1451.4089" y="460.107" width="7.4051" height="2.4684"/>
          <rect class="cls-2" x="1451.4089" y="464.8194" width="12.3417" height="2.4683"/>
          <rect class="cls-2" x="1451.4089" y="469.5317" width="12.3417" height="2.4683"/>
          <polygon class="cls-2" points="1440.891 443.726 1440.033 441.258 1424.257 441.258 1424.257 443.726 1440.891 443.726"/>
          <polygon class="cls-2" points="1439.252 439.014 1438.394 436.546 1424.257 436.546 1424.257 439.014 1439.252 439.014"/>
        </g>
      </g>
      <g>
        <g>
          <g>
            <circle class="cls-2" cx="1439.5046" cy="398.9758" r="3.5844"/>
            <circle class="cls-2" cx="1448.4954" cy="398.9758" r="3.5844"/>
          </g>
          <g>
            <path class="cls-2" d="M1424.03,412.75l12.1892-5.3881-4.11,13.05a6.2892,6.2892,0,0,1-12.3489-1.67C1419.7606,415.8145,1421.56,413.8577,1424.03,412.75Z"/>
            <path class="cls-2" d="M1463.97,412.7364l-12.1892-5.3882,4.11,13.05a6.3408,6.3408,0,0,0,6.0855,4.6051l.0066,0a6.2731,6.2731,0,0,0,6.2568-6.2758C1468.2394,415.8011,1466.44,413.8443,1463.97,412.7364Z"/>
          </g>
        </g>
        <g>
          <path class="cls-2" d="M1451.0489,408.5585a7.7661,7.7661,0,0,0-14.0814,0Z"/>
          <rect class="cls-2" x="1436.2195" y="412.1495" width="15.5607" height="4.1895"/>
          <rect class="cls-2" x="1436.2195" y="419.9301" width="15.5607" height="4.1895"/>
          <path class="cls-2" d="M1436.9675,427.7107a7.766,7.766,0,0,0,14.0814,0Z"/>
        </g>
      </g>
    </g>
    <rect class="cls-4" x="1144" y="552" width="160" height="160" transform="translate(2448 1264) rotate(-180)"/>
    <g>
      <g>
        <g>
          <g>
            <circle class="cls-7" cx="1224.0216" cy="597.1372" r="4.788"/>
            <path class="cls-7" d="M1224,583.97a20.7927,20.7927,0,0,0-19.1521,13.1671,20.5124,20.5124,0,0,0,38.3042,0A20.7927,20.7927,0,0,0,1224,583.97Zm0,23.94a10.7731,10.7731,0,1,1,10.7731-10.773A10.7731,10.7731,0,0,1,1224,607.91Z"/>
          </g>
          <path class="cls-7" d="M1224,572a20.6265,20.6265,0,0,0-17.9551,10.7731v3.591a23.427,23.427,0,0,1,35.91,0v-3.591A20.6265,20.6265,0,0,0,1224,572Z"/>
        </g>
        <g>
          <polygon points="1224 692 1224.862 689.532 1223.146 689.532 1224 692"/>
          <polygon points="1222.358 687.288 1225.65 687.288 1226.516 684.819 1221.492 684.819 1222.358 687.288"/>
          <polygon points="1220.704 682.575 1227.304 682.575 1228.171 680.107 1219.837 680.107 1220.704 682.575"/>
          <polygon points="1219.049 677.863 1228.958 677.863 1229.825 675.395 1218.183 675.395 1219.049 677.863"/>
          <polygon points="1209.194 668.439 1222.53 668.439 1221.671 665.97 1209.194 665.97 1209.194 668.439"/>
          <polygon points="1227.117 663.726 1243.751 663.726 1243.751 661.258 1227.975 661.258 1227.117 663.726"/>
          <polygon points="1229.614 656.546 1228.755 659.014 1243.751 659.014 1243.751 656.546 1229.614 656.546"/>
          <rect x="1204.2571" y="689.5317" width="12.3417" height="2.4683"/>
          <rect x="1204.2571" y="684.8194" width="12.3417" height="2.4683"/>
          <rect x="1209.1938" y="680.107" width="7.4051" height="2.4684"/>
          <rect x="1209.1938" y="675.3948" width="7.4051" height="2.4683"/>
          <polygon points="1238.814 665.97 1226.336 665.97 1225.478 668.439 1238.814 668.439 1238.814 665.97"/>
          <polygon points="1231.409 673.151 1238.814 673.151 1238.814 670.682 1231.409 670.682 1231.409 670.682 1224.698 670.682 1224.004 672.678 1223.31 670.682 1216.599 670.682 1209.194 670.682 1209.194 673.151 1216.599 673.151 1216.599 670.882 1217.395 673.151 1230.613 673.151 1231.409 670.883 1231.409 673.151"/>
          <rect x="1231.4089" y="675.3948" width="7.4051" height="2.4683"/>
          <rect x="1231.4089" y="680.107" width="7.4051" height="2.4684"/>
          <rect x="1231.4089" y="684.8194" width="12.3417" height="2.4683"/>
          <rect x="1231.4089" y="689.5317" width="12.3417" height="2.4683"/>
          <polygon points="1220.891 663.726 1220.033 661.258 1204.257 661.258 1204.257 663.726 1220.891 663.726"/>
          <polygon points="1219.252 659.014 1218.394 656.546 1204.257 656.546 1204.257 659.014 1219.252 659.014"/>
        </g>
      </g>
      <g>
        <g>
          <g>
            <circle class="cls-7" cx="1219.5046" cy="618.9758" r="3.5844"/>
            <circle class="cls-7" cx="1228.4954" cy="618.9758" r="3.5844"/>
          </g>
          <g>
            <path class="cls-7" d="M1204.03,632.75l12.1892-5.3881-4.11,13.05a6.2892,6.2892,0,0,1-12.3489-1.67C1199.7606,635.8145,1201.56,633.8577,1204.03,632.75Z"/>
            <path class="cls-7" d="M1243.97,632.7364l-12.1892-5.3882,4.11,13.05a6.3408,6.3408,0,0,0,6.0855,4.6051l.0066,0a6.2731,6.2731,0,0,0,6.2568-6.2758C1248.2394,635.8011,1246.44,633.8443,1243.97,632.7364Z"/>
          </g>
        </g>
        <g>
          <path class="cls-7" d="M1231.0489,628.5585a7.7661,7.7661,0,0,0-14.0814,0Z"/>
          <rect class="cls-7" x="1216.2195" y="632.1495" width="15.5607" height="4.1895"/>
          <rect class="cls-7" x="1216.2195" y="639.9301" width="15.5607" height="4.1895"/>
          <path class="cls-7" d="M1216.9675,647.7107a7.766,7.766,0,0,0,14.0814,0Z"/>
        </g>
      </g>
    </g>
    <rect class="cls-3" x="1364" y="552" width="160" height="160" transform="translate(2888 1264) rotate(-180)"/>
    <g>
      <g>
        <g>
          <g>
            <circle class="cls-7" cx="1444.0216" cy="597.1372" r="4.788"/>
            <path class="cls-7" d="M1444,583.97a20.7927,20.7927,0,0,0-19.1521,13.1671,20.5124,20.5124,0,0,0,38.3042,0A20.7927,20.7927,0,0,0,1444,583.97Zm0,23.94a10.7731,10.7731,0,1,1,10.7731-10.773A10.7731,10.7731,0,0,1,1444,607.91Z"/>
          </g>
          <path class="cls-7" d="M1444,572a20.6265,20.6265,0,0,0-17.9551,10.7731v3.591a23.427,23.427,0,0,1,35.91,0v-3.591A20.6265,20.6265,0,0,0,1444,572Z"/>
        </g>
        <g>
          <polygon points="1444 692 1444.862 689.532 1443.146 689.532 1444 692"/>
          <polygon points="1442.358 687.288 1445.65 687.288 1446.516 684.819 1441.492 684.819 1442.358 687.288"/>
          <polygon points="1440.704 682.575 1447.304 682.575 1448.171 680.107 1439.837 680.107 1440.704 682.575"/>
          <polygon points="1439.049 677.863 1448.958 677.863 1449.825 675.395 1438.183 675.395 1439.049 677.863"/>
          <polygon points="1429.194 668.439 1442.53 668.439 1441.671 665.97 1429.194 665.97 1429.194 668.439"/>
          <polygon points="1447.117 663.726 1463.751 663.726 1463.751 661.258 1447.975 661.258 1447.117 663.726"/>
          <polygon points="1449.614 656.546 1448.755 659.014 1463.751 659.014 1463.751 656.546 1449.614 656.546"/>
          <rect x="1424.2571" y="689.5317" width="12.3417" height="2.4683"/>
          <rect x="1424.2571" y="684.8194" width="12.3417" height="2.4683"/>
          <rect x="1429.1938" y="680.107" width="7.4051" height="2.4684"/>
          <rect x="1429.1938" y="675.3948" width="7.4051" height="2.4683"/>
          <polygon points="1458.814 665.97 1446.336 665.97 1445.478 668.439 1458.814 668.439 1458.814 665.97"/>
          <polygon points="1451.409 673.151 1458.814 673.151 1458.814 670.682 1451.409 670.682 1451.409 670.682 1444.698 670.682 1444.004 672.678 1443.31 670.682 1436.599 670.682 1429.194 670.682 1429.194 673.151 1436.599 673.151 1436.599 670.882 1437.395 673.151 1450.613 673.151 1451.409 670.883 1451.409 673.151"/>
          <rect x="1451.4089" y="675.3948" width="7.4051" height="2.4683"/>
          <rect x="1451.4089" y="680.107" width="7.4051" height="2.4684"/>
          <rect x="1451.4089" y="684.8194" width="12.3417" height="2.4683"/>
          <rect x="1451.4089" y="689.5317" width="12.3417" height="2.4683"/>
          <polygon points="1440.891 663.726 1440.033 661.258 1424.257 661.258 1424.257 663.726 1440.891 663.726"/>
          <polygon points="1439.252 659.014 1438.394 656.546 1424.257 656.546 1424.257 659.014 1439.252 659.014"/>
        </g>
      </g>
      <g>
        <g>
          <g>
            <circle class="cls-7" cx="1439.5046" cy="618.9758" r="3.5844"/>
            <circle class="cls-7" cx="1448.4954" cy="618.9758" r="3.5844"/>
          </g>
          <g>
            <path class="cls-7" d="M1424.03,632.75l12.1892-5.3881-4.11,13.05a6.2892,6.2892,0,0,1-12.3489-1.67C1419.7606,635.8145,1421.56,633.8577,1424.03,632.75Z"/>
            <path class="cls-7" d="M1463.97,632.7364l-12.1892-5.3882,4.11,13.05a6.3408,6.3408,0,0,0,6.0855,4.6051l.0066,0a6.2731,6.2731,0,0,0,6.2568-6.2758C1468.2394,635.8011,1466.44,633.8443,1463.97,632.7364Z"/>
          </g>
        </g>
        <g>
          <path class="cls-7" d="M1451.0489,628.5585a7.7661,7.7661,0,0,0-14.0814,0Z"/>
          <rect class="cls-7" x="1436.2195" y="632.1495" width="15.5607" height="4.1895"/>
          <rect class="cls-7" x="1436.2195" y="639.9301" width="15.5607" height="4.1895"/>
          <path class="cls-7" d="M1436.9675,647.7107a7.766,7.766,0,0,0,14.0814,0Z"/>
        </g>
      </g>
    </g>
    <rect class="cls-8" x="1584" y="552" width="160" height="160" transform="translate(3328 1264) rotate(-180)"/>
    <g>
      <g>
        <g>
          <g>
            <circle class="cls-7" cx="1664.0216" cy="597.1372" r="4.788"/>
            <path class="cls-7" d="M1664,583.97a20.7927,20.7927,0,0,0-19.1521,13.1671,20.5124,20.5124,0,0,0,38.3042,0A20.7927,20.7927,0,0,0,1664,583.97Zm0,23.94a10.7731,10.7731,0,1,1,10.7731-10.773A10.7731,10.7731,0,0,1,1664,607.91Z"/>
          </g>
          <path class="cls-7" d="M1664,572a20.6265,20.6265,0,0,0-17.9551,10.7731v3.591a23.427,23.427,0,0,1,35.91,0v-3.591A20.6265,20.6265,0,0,0,1664,572Z"/>
        </g>
        <g>
          <polygon points="1664 692 1664.862 689.532 1663.146 689.532 1664 692"/>
          <polygon points="1662.358 687.288 1665.65 687.288 1666.516 684.819 1661.492 684.819 1662.358 687.288"/>
          <polygon points="1660.704 682.575 1667.304 682.575 1668.171 680.107 1659.837 680.107 1660.704 682.575"/>
          <polygon points="1659.049 677.863 1668.958 677.863 1669.825 675.395 1658.183 675.395 1659.049 677.863"/>
          <polygon points="1649.194 668.439 1662.53 668.439 1661.671 665.97 1649.194 665.97 1649.194 668.439"/>
          <polygon points="1667.117 663.726 1683.751 663.726 1683.751 661.258 1667.975 661.258 1667.117 663.726"/>
          <polygon points="1669.614 656.546 1668.755 659.014 1683.751 659.014 1683.751 656.546 1669.614 656.546"/>
          <rect x="1644.2571" y="689.5317" width="12.3417" height="2.4683"/>
          <rect x="1644.2571" y="684.8194" width="12.3417" height="2.4683"/>
          <rect x="1649.1938" y="680.107" width="7.4051" height="2.4684"/>
          <rect x="1649.1938" y="675.3948" width="7.4051" height="2.4683"/>
          <polygon points="1678.814 665.97 1666.336 665.97 1665.478 668.439 1678.814 668.439 1678.814 665.97"/>
          <polygon points="1671.409 673.151 1678.814 673.151 1678.814 670.682 1671.409 670.682 1671.409 670.682 1664.698 670.682 1664.004 672.678 1663.31 670.682 1656.599 670.682 1649.194 670.682 1649.194 673.151 1656.599 673.151 1656.599 670.882 1657.395 673.151 1670.613 673.151 1671.409 670.883 1671.409 673.151"/>
          <rect x="1671.4089" y="675.3948" width="7.4051" height="2.4683"/>
          <rect x="1671.4089" y="680.107" width="7.4051" height="2.4684"/>
          <rect x="1671.4089" y="684.8194" width="12.3417" height="2.4683"/>
          <rect x="1671.4089" y="689.5317" width="12.3417" height="2.4683"/>
          <polygon points="1660.891 663.726 1660.033 661.258 1644.257 661.258 1644.257 663.726 1660.891 663.726"/>
          <polygon points="1659.252 659.014 1658.394 656.546 1644.257 656.546 1644.257 659.014 1659.252 659.014"/>
        </g>
      </g>
      <g>
        <g>
          <g>
            <circle class="cls-7" cx="1659.5046" cy="618.9758" r="3.5844"/>
            <circle class="cls-7" cx="1668.4954" cy="618.9758" r="3.5844"/>
          </g>
          <g>
            <path class="cls-7" d="M1644.03,632.75l12.1892-5.3881-4.11,13.05a6.2892,6.2892,0,0,1-12.3489-1.67C1639.7606,635.8145,1641.56,633.8577,1644.03,632.75Z"/>
            <path class="cls-7" d="M1683.97,632.7364l-12.1892-5.3882,4.11,13.05a6.3408,6.3408,0,0,0,6.0855,4.6051l.0066,0a6.2731,6.2731,0,0,0,6.2568-6.2758C1688.2394,635.8011,1686.44,633.8443,1683.97,632.7364Z"/>
          </g>
        </g>
        <g>
          <path class="cls-7" d="M1671.0489,628.5585a7.7661,7.7661,0,0,0-14.0814,0Z"/>
          <rect class="cls-7" x="1656.2195" y="632.1495" width="15.5607" height="4.1895"/>
          <rect class="cls-7" x="1656.2195" y="639.9301" width="15.5607" height="4.1895"/>
          <path class="cls-7" d="M1656.9675,647.7107a7.766,7.766,0,0,0,14.0814,0Z"/>
        </g>
      </g>
    </g>
    <circle class="cls-4" cx="1224" cy="852" r="80"/>
    <g>
      <g>
        <g>
          <g>
            <circle class="cls-7" cx="1224.0216" cy="817.1372" r="4.788"/>
            <path class="cls-7" d="M1224,803.97a20.7927,20.7927,0,0,0-19.1521,13.1671,20.5124,20.5124,0,0,0,38.3042,0A20.7927,20.7927,0,0,0,1224,803.97Zm0,23.94a10.7731,10.7731,0,1,1,10.7731-10.773A10.7731,10.7731,0,0,1,1224,827.91Z"/>
          </g>
          <path class="cls-7" d="M1224,792a20.6265,20.6265,0,0,0-17.9551,10.7731v3.591a23.427,23.427,0,0,1,35.91,0v-3.591A20.6265,20.6265,0,0,0,1224,792Z"/>
        </g>
        <g>
          <polygon points="1224 912 1224.862 909.532 1223.146 909.532 1224 912"/>
          <polygon points="1222.358 907.288 1225.65 907.288 1226.516 904.819 1221.492 904.819 1222.358 907.288"/>
          <polygon points="1220.704 902.575 1227.304 902.575 1228.171 900.107 1219.837 900.107 1220.704 902.575"/>
          <polygon points="1219.049 897.863 1228.958 897.863 1229.825 895.395 1218.183 895.395 1219.049 897.863"/>
          <polygon points="1209.194 888.439 1222.53 888.439 1221.671 885.97 1209.194 885.97 1209.194 888.439"/>
          <polygon points="1227.117 883.726 1243.751 883.726 1243.751 881.258 1227.975 881.258 1227.117 883.726"/>
          <polygon points="1229.614 876.546 1228.755 879.014 1243.751 879.014 1243.751 876.546 1229.614 876.546"/>
          <rect x="1204.2571" y="909.5317" width="12.3417" height="2.4683"/>
          <rect x="1204.2571" y="904.8194" width="12.3417" height="2.4683"/>
          <rect x="1209.1938" y="900.107" width="7.4051" height="2.4684"/>
          <rect x="1209.1938" y="895.3948" width="7.4051" height="2.4683"/>
          <polygon points="1238.814 885.97 1226.336 885.97 1225.478 888.439 1238.814 888.439 1238.814 885.97"/>
          <polygon points="1231.409 893.151 1238.814 893.151 1238.814 890.682 1231.409 890.682 1231.409 890.682 1224.698 890.682 1224.004 892.678 1223.31 890.682 1216.599 890.682 1209.194 890.682 1209.194 893.151 1216.599 893.151 1216.599 890.882 1217.395 893.151 1230.613 893.151 1231.409 890.883 1231.409 893.151"/>
          <rect x="1231.4089" y="895.3948" width="7.4051" height="2.4683"/>
          <rect x="1231.4089" y="900.107" width="7.4051" height="2.4684"/>
          <rect x="1231.4089" y="904.8194" width="12.3417" height="2.4683"/>
          <rect x="1231.4089" y="909.5317" width="12.3417" height="2.4683"/>
          <polygon points="1220.891 883.726 1220.033 881.258 1204.257 881.258 1204.257 883.726 1220.891 883.726"/>
          <polygon points="1219.252 879.014 1218.394 876.546 1204.257 876.546 1204.257 879.014 1219.252 879.014"/>
        </g>
      </g>
      <g>
        <g>
          <g>
            <circle class="cls-7" cx="1219.5046" cy="838.9758" r="3.5844"/>
            <circle class="cls-7" cx="1228.4954" cy="838.9758" r="3.5844"/>
          </g>
          <g>
            <path class="cls-7" d="M1204.03,852.75l12.1892-5.3881-4.11,13.05a6.2892,6.2892,0,0,1-12.3489-1.67C1199.7606,855.8145,1201.56,853.8577,1204.03,852.75Z"/>
            <path class="cls-7" d="M1243.97,852.7364l-12.1892-5.3882,4.11,13.05a6.3408,6.3408,0,0,0,6.0855,4.6051l.0066,0a6.2731,6.2731,0,0,0,6.2568-6.2758C1248.2394,855.8011,1246.44,853.8443,1243.97,852.7364Z"/>
          </g>
        </g>
        <g>
          <path class="cls-7" d="M1231.0489,848.5585a7.7661,7.7661,0,0,0-14.0814,0Z"/>
          <rect class="cls-7" x="1216.2195" y="852.1495" width="15.5607" height="4.1895"/>
          <rect class="cls-7" x="1216.2195" y="859.9301" width="15.5607" height="4.1895"/>
          <path class="cls-7" d="M1216.9675,867.7107a7.766,7.766,0,0,0,14.0814,0Z"/>
        </g>
      </g>
    </g>
    <circle class="cls-3" cx="1444" cy="852" r="80"/>
    <g>
      <g>
        <g>
          <g>
            <circle class="cls-7" cx="1444.0216" cy="817.1372" r="4.788"/>
            <path class="cls-7" d="M1444,803.97a20.7927,20.7927,0,0,0-19.1521,13.1671,20.5124,20.5124,0,0,0,38.3042,0A20.7927,20.7927,0,0,0,1444,803.97Zm0,23.94a10.7731,10.7731,0,1,1,10.7731-10.773A10.7731,10.7731,0,0,1,1444,827.91Z"/>
          </g>
          <path class="cls-7" d="M1444,792a20.6265,20.6265,0,0,0-17.9551,10.7731v3.591a23.427,23.427,0,0,1,35.91,0v-3.591A20.6265,20.6265,0,0,0,1444,792Z"/>
        </g>
        <g>
          <polygon points="1444 912 1444.862 909.532 1443.146 909.532 1444 912"/>
          <polygon points="1442.358 907.288 1445.65 907.288 1446.516 904.819 1441.492 904.819 1442.358 907.288"/>
          <polygon points="1440.704 902.575 1447.304 902.575 1448.171 900.107 1439.837 900.107 1440.704 902.575"/>
          <polygon points="1439.049 897.863 1448.958 897.863 1449.825 895.395 1438.183 895.395 1439.049 897.863"/>
          <polygon points="1429.194 888.439 1442.53 888.439 1441.671 885.97 1429.194 885.97 1429.194 888.439"/>
          <polygon points="1447.117 883.726 1463.751 883.726 1463.751 881.258 1447.975 881.258 1447.117 883.726"/>
          <polygon points="1449.614 876.546 1448.755 879.014 1463.751 879.014 1463.751 876.546 1449.614 876.546"/>
          <rect x="1424.2571" y="909.5317" width="12.3417" height="2.4683"/>
          <rect x="1424.2571" y="904.8194" width="12.3417" height="2.4683"/>
          <rect x="1429.1938" y="900.107" width="7.4051" height="2.4684"/>
          <rect x="1429.1938" y="895.3948" width="7.4051" height="2.4683"/>
          <polygon points="1458.814 885.97 1446.336 885.97 1445.478 888.439 1458.814 888.439 1458.814 885.97"/>
          <polygon points="1451.409 893.151 1458.814 893.151 1458.814 890.682 1451.409 890.682 1451.409 890.682 1444.698 890.682 1444.004 892.678 1443.31 890.682 1436.599 890.682 1429.194 890.682 1429.194 893.151 1436.599 893.151 1436.599 890.882 1437.395 893.151 1450.613 893.151 1451.409 890.883 1451.409 893.151"/>
          <rect x="1451.4089" y="895.3948" width="7.4051" height="2.4683"/>
          <rect x="1451.4089" y="900.107" width="7.4051" height="2.4684"/>
          <rect x="1451.4089" y="904.8194" width="12.3417" height="2.4683"/>
          <rect x="1451.4089" y="909.5317" width="12.3417" height="2.4683"/>
          <polygon points="1440.891 883.726 1440.033 881.258 1424.257 881.258 1424.257 883.726 1440.891 883.726"/>
          <polygon points="1439.252 879.014 1438.394 876.546 1424.257 876.546 1424.257 879.014 1439.252 879.014"/>
        </g>
      </g>
      <g>
        <g>
          <g>
            <circle class="cls-7" cx="1439.5046" cy="838.9758" r="3.5844"/>
            <circle class="cls-7" cx="1448.4954" cy="838.9758" r="3.5844"/>
          </g>
          <g>
            <path class="cls-7" d="M1424.03,852.75l12.1892-5.3881-4.11,13.05a6.2892,6.2892,0,0,1-12.3489-1.67C1419.7606,855.8145,1421.56,853.8577,1424.03,852.75Z"/>
            <path class="cls-7" d="M1463.97,852.7364l-12.1892-5.3882,4.11,13.05a6.3408,6.3408,0,0,0,6.0855,4.6051l.0066,0a6.2731,6.2731,0,0,0,6.2568-6.2758C1468.2394,855.8011,1466.44,853.8443,1463.97,852.7364Z"/>
          </g>
        </g>
        <g>
          <path class="cls-7" d="M1451.0489,848.5585a7.7661,7.7661,0,0,0-14.0814,0Z"/>
          <rect class="cls-7" x="1436.2195" y="852.1495" width="15.5607" height="4.1895"/>
          <rect class="cls-7" x="1436.2195" y="859.9301" width="15.5607" height="4.1895"/>
          <path class="cls-7" d="M1436.9675,867.7107a7.766,7.766,0,0,0,14.0814,0Z"/>
        </g>
      </g>
    </g>
    <circle class="cls-8" cx="1664" cy="852" r="80"/>
    <g>
      <g>
        <g>
          <g>
            <circle class="cls-7" cx="1664.0216" cy="817.1372" r="4.788"/>
            <path class="cls-7" d="M1664,803.97a20.7927,20.7927,0,0,0-19.1521,13.1671,20.5124,20.5124,0,0,0,38.3042,0A20.7927,20.7927,0,0,0,1664,803.97Zm0,23.94a10.7731,10.7731,0,1,1,10.7731-10.773A10.7731,10.7731,0,0,1,1664,827.91Z"/>
          </g>
          <path class="cls-7" d="M1664,792a20.6265,20.6265,0,0,0-17.9551,10.7731v3.591a23.427,23.427,0,0,1,35.91,0v-3.591A20.6265,20.6265,0,0,0,1664,792Z"/>
        </g>
        <g>
          <polygon points="1664 912 1664.862 909.532 1663.146 909.532 1664 912"/>
          <polygon points="1662.358 907.288 1665.65 907.288 1666.516 904.819 1661.492 904.819 1662.358 907.288"/>
          <polygon points="1660.704 902.575 1667.304 902.575 1668.171 900.107 1659.837 900.107 1660.704 902.575"/>
          <polygon points="1659.049 897.863 1668.958 897.863 1669.825 895.395 1658.183 895.395 1659.049 897.863"/>
          <polygon points="1649.194 888.439 1662.53 888.439 1661.671 885.97 1649.194 885.97 1649.194 888.439"/>
          <polygon points="1667.117 883.726 1683.751 883.726 1683.751 881.258 1667.975 881.258 1667.117 883.726"/>
          <polygon points="1669.614 876.546 1668.755 879.014 1683.751 879.014 1683.751 876.546 1669.614 876.546"/>
          <rect x="1644.2571" y="909.5317" width="12.3417" height="2.4683"/>
          <rect x="1644.2571" y="904.8194" width="12.3417" height="2.4683"/>
          <rect x="1649.1938" y="900.107" width="7.4051" height="2.4684"/>
          <rect x="1649.1938" y="895.3948" width="7.4051" height="2.4683"/>
          <polygon points="1678.814 885.97 1666.336 885.97 1665.478 888.439 1678.814 888.439 1678.814 885.97"/>
          <polygon points="1671.409 893.151 1678.814 893.151 1678.814 890.682 1671.409 890.682 1671.409 890.682 1664.698 890.682 1664.004 892.678 1663.31 890.682 1656.599 890.682 1649.194 890.682 1649.194 893.151 1656.599 893.151 1656.599 890.882 1657.395 893.151 1670.613 893.151 1671.409 890.883 1671.409 893.151"/>
          <rect x="1671.4089" y="895.3948" width="7.4051" height="2.4683"/>
          <rect x="1671.4089" y="900.107" width="7.4051" height="2.4684"/>
          <rect x="1671.4089" y="904.8194" width="12.3417" height="2.4683"/>
          <rect x="1671.4089" y="909.5317" width="12.3417" height="2.4683"/>
          <polygon points="1660.891 883.726 1660.033 881.258 1644.257 881.258 1644.257 883.726 1660.891 883.726"/>
          <polygon points="1659.252 879.014 1658.394 876.546 1644.257 876.546 1644.257 879.014 1659.252 879.014"/>
        </g>
      </g>
      <g>
        <g>
          <g>
            <circle class="cls-7" cx="1659.5046" cy="838.9758" r="3.5844"/>
            <circle class="cls-7" cx="1668.4954" cy="838.9758" r="3.5844"/>
          </g>
          <g>
            <path class="cls-7" d="M1644.03,852.75l12.1892-5.3881-4.11,13.05a6.2892,6.2892,0,0,1-12.3489-1.67C1639.7606,855.8145,1641.56,853.8577,1644.03,852.75Z"/>
            <path class="cls-7" d="M1683.97,852.7364l-12.1892-5.3882,4.11,13.05a6.3408,6.3408,0,0,0,6.0855,4.6051l.0066,0a6.2731,6.2731,0,0,0,6.2568-6.2758C1688.2394,855.8011,1686.44,853.8443,1683.97,852.7364Z"/>
          </g>
        </g>
        <g>
          <path class="cls-7" d="M1671.0489,848.5585a7.7661,7.7661,0,0,0-14.0814,0Z"/>
          <rect class="cls-7" x="1656.2195" y="852.1495" width="15.5607" height="4.1895"/>
          <rect class="cls-7" x="1656.2195" y="859.9301" width="15.5607" height="4.1895"/>
          <path class="cls-7" d="M1656.9675,867.7107a7.766,7.766,0,0,0,14.0814,0Z"/>
        </g>
      </g>
    </g>
    <rect class="cls-2" x="1144" y="112" width="160" height="160" transform="translate(2448 384) rotate(-180)"/>
    <g>
      <g>
        <g>
          <circle class="cls-5" cx="1224.0216" cy="157.2" r="4.8"/>
          <path class="cls-5" d="M1224.0216,144a20.8449,20.8449,0,0,0-19.2,13.2,20.5636,20.5636,0,0,0,38.4,0A20.8447,20.8447,0,0,0,1224.0216,144Zm0,24a10.8,10.8,0,1,1,10.8-10.8A10.8,10.8,0,0,1,1224.0216,168Z"/>
        </g>
        <path class="cls-5" d="M1224.0216,132a20.6783,20.6783,0,0,0-18,10.8v3.6a23.4857,23.4857,0,0,1,36,0v-3.6A20.678,20.678,0,0,0,1224.0216,132Z"/>
      </g>
      <g>
        <g>
          <g>
            <circle class="cls-5" cx="1219.4933" cy="179.0932" r="3.5933"/>
            <circle class="cls-5" cx="1228.5067" cy="179.0932" r="3.5933"/>
          </g>
          <g>
            <path class="cls-5" d="M1203.98,192.8882l12.22-5.4016-4.12,13.0829a6.305,6.305,0,0,1-12.38-1.6744C1199.7,195.9606,1201.5043,193.9989,1203.98,192.8882Z"/>
            <path class="cls-5" d="M1244.02,192.8882l-12.22-5.4016,4.12,13.0829a6.3567,6.3567,0,0,0,6.1007,4.6167l.0067,0a6.2888,6.2888,0,0,0,6.2724-6.2915C1248.3,195.9606,1246.4957,193.9989,1244.02,192.8882Z"/>
          </g>
        </g>
        <g>
          <path class="cls-5" d="M1231.0666,188.7a7.7855,7.7855,0,0,0-14.1166,0Z"/>
          <rect class="cls-5" x="1216.2" y="192.2999" width="15.5996" height="4.2"/>
          <rect class="cls-5" x="1216.2" y="200.0999" width="15.5996" height="4.2"/>
          <path class="cls-5" d="M1216.95,207.9a7.7855,7.7855,0,0,0,14.1166,0Z"/>
        </g>
      </g>
      <g>
        <rect class="cls-5" x="1204.2096" y="249.7505" width="12.372" height="2.2495"/>
        <rect class="cls-5" x="1204.2096" y="245.0267" width="12.372" height="2.2495"/>
        <rect class="cls-5" x="1209.1584" y="240.3029" width="7.4232" height="2.2495"/>
        <rect class="cls-5" x="1209.1584" y="235.579" width="7.4232" height="2.2495"/>
        <rect class="cls-5" x="1231.428" y="249.7505" width="12.372" height="2.2495"/>
        <rect class="cls-5" x="1231.428" y="245.0267" width="12.372" height="2.2495"/>
        <rect class="cls-5" x="1231.428" y="240.3029" width="7.4232" height="2.2495"/>
        <rect class="cls-5" x="1231.428" y="235.579" width="7.4232" height="2.2495"/>
        <polygon class="cls-5" points="1231.428 233.105 1238.851 233.105 1238.851 230.855 1231.428 230.855 1224.937 230.855 1224.157 233.105 1230.672 233.105 1231.428 230.962 1231.428 233.105"/>
        <polygon class="cls-5" points="1216.582 233.105 1209.158 233.105 1209.158 230.855 1216.582 230.855 1223.073 230.855 1223.853 233.105 1217.338 233.105 1216.582 230.962 1216.582 233.105"/>
        <polygon class="cls-5" points="1238.851 226.131 1226.576 226.131 1225.795 228.381 1238.851 228.381 1238.851 226.131"/>
        <polygon class="cls-5" points="1229.853 216.684 1229.073 218.933 1243.8 218.933 1243.8 216.684 1229.853 216.684"/>
        <polygon class="cls-5" points="1224 252 1224.795 249.751 1223.215 249.751 1224 252"/>
        <polygon class="cls-5" points="1222.341 247.276 1225.668 247.276 1226.462 245.027 1221.547 245.027 1222.341 247.276"/>
        <polygon class="cls-5" points="1220.674 242.552 1227.336 242.552 1228.13 240.303 1219.879 240.303 1220.674 242.552"/>
        <polygon class="cls-5" points="1219.006 237.828 1229.004 237.828 1229.798 235.579 1218.212 235.579 1219.006 237.828"/>
        <polygon class="cls-5" points="1209.158 228.381 1222.214 228.381 1221.434 226.131 1209.158 226.131 1209.158 228.381"/>
        <polygon class="cls-5" points="1227.434 223.657 1243.8 223.657 1243.8 221.407 1228.215 221.407 1227.434 223.657"/>
        <polygon class="cls-5" points="1219.795 221.407 1204.21 221.407 1204.21 223.657 1220.575 223.657 1219.795 221.407"/>
        <polygon class="cls-5" points="1218.156 216.684 1204.21 216.684 1204.21 218.933 1218.937 218.933 1218.156 216.684"/>
      </g>
    </g>
    <circle class="cls-2" cx="1224" cy="412" r="80"/>
    <g>
      <g>
        <g>
          <circle class="cls-5" cx="1224.0216" cy="377.2" r="4.8"/>
          <path class="cls-5" d="M1224.0216,364a20.8449,20.8449,0,0,0-19.2,13.2,20.5636,20.5636,0,0,0,38.4,0A20.8447,20.8447,0,0,0,1224.0216,364Zm0,24a10.8,10.8,0,1,1,10.8-10.8A10.8,10.8,0,0,1,1224.0216,388Z"/>
        </g>
        <path class="cls-5" d="M1224.0216,352a20.6783,20.6783,0,0,0-18,10.8v3.6a23.4857,23.4857,0,0,1,36,0v-3.6A20.678,20.678,0,0,0,1224.0216,352Z"/>
      </g>
      <g>
        <g>
          <g>
            <circle class="cls-5" cx="1219.4933" cy="399.0932" r="3.5933"/>
            <circle class="cls-5" cx="1228.5067" cy="399.0932" r="3.5933"/>
          </g>
          <g>
            <path class="cls-5" d="M1203.98,412.8882l12.22-5.4016-4.12,13.0829a6.305,6.305,0,0,1-12.38-1.6744C1199.7,415.9606,1201.5043,413.9989,1203.98,412.8882Z"/>
            <path class="cls-5" d="M1244.02,412.8882l-12.22-5.4016,4.12,13.0829a6.3567,6.3567,0,0,0,6.1007,4.6167l.0067,0a6.2888,6.2888,0,0,0,6.2724-6.2915C1248.3,415.9606,1246.4957,413.9989,1244.02,412.8882Z"/>
          </g>
        </g>
        <g>
          <path class="cls-5" d="M1231.0666,408.7a7.7855,7.7855,0,0,0-14.1166,0Z"/>
          <rect class="cls-5" x="1216.2" y="412.2999" width="15.5996" height="4.2"/>
          <rect class="cls-5" x="1216.2" y="420.0999" width="15.5996" height="4.2"/>
          <path class="cls-5" d="M1216.95,427.9a7.7855,7.7855,0,0,0,14.1166,0Z"/>
        </g>
      </g>
      <g>
        <rect class="cls-5" x="1204.2096" y="469.7505" width="12.372" height="2.2495"/>
        <rect class="cls-5" x="1204.2096" y="465.0267" width="12.372" height="2.2495"/>
        <rect class="cls-5" x="1209.1584" y="460.3029" width="7.4232" height="2.2495"/>
        <rect class="cls-5" x="1209.1584" y="455.579" width="7.4232" height="2.2495"/>
        <rect class="cls-5" x="1231.428" y="469.7505" width="12.372" height="2.2495"/>
        <rect class="cls-5" x="1231.428" y="465.0267" width="12.372" height="2.2495"/>
        <rect class="cls-5" x="1231.428" y="460.3029" width="7.4232" height="2.2495"/>
        <rect class="cls-5" x="1231.428" y="455.579" width="7.4232" height="2.2495"/>
        <polygon class="cls-5" points="1231.428 453.105 1238.851 453.105 1238.851 450.855 1231.428 450.855 1224.937 450.855 1224.157 453.105 1230.672 453.105 1231.428 450.962 1231.428 453.105"/>
        <polygon class="cls-5" points="1216.582 453.105 1209.158 453.105 1209.158 450.855 1216.582 450.855 1223.073 450.855 1223.853 453.105 1217.338 453.105 1216.582 450.962 1216.582 453.105"/>
        <polygon class="cls-5" points="1238.851 446.131 1226.576 446.131 1225.795 448.381 1238.851 448.381 1238.851 446.131"/>
        <polygon class="cls-5" points="1229.853 436.684 1229.073 438.933 1243.8 438.933 1243.8 436.684 1229.853 436.684"/>
        <polygon class="cls-5" points="1224 472 1224.795 469.751 1223.215 469.751 1224 472"/>
        <polygon class="cls-5" points="1222.341 467.276 1225.668 467.276 1226.462 465.027 1221.547 465.027 1222.341 467.276"/>
        <polygon class="cls-5" points="1220.674 462.552 1227.336 462.552 1228.13 460.303 1219.879 460.303 1220.674 462.552"/>
        <polygon class="cls-5" points="1219.006 457.828 1229.004 457.828 1229.798 455.579 1218.212 455.579 1219.006 457.828"/>
        <polygon class="cls-5" points="1209.158 448.381 1222.214 448.381 1221.434 446.131 1209.158 446.131 1209.158 448.381"/>
        <polygon class="cls-5" points="1227.434 443.657 1243.8 443.657 1243.8 441.407 1228.215 441.407 1227.434 443.657"/>
        <polygon class="cls-5" points="1219.795 441.407 1204.21 441.407 1204.21 443.657 1220.575 443.657 1219.795 441.407"/>
        <polygon class="cls-5" points="1218.156 436.684 1204.21 436.684 1204.21 438.933 1218.937 438.933 1218.156 436.684"/>
      </g>
    </g>
  </g>
</svg>
